<svg width="29" height="29" viewBox="0 0 29 29" fill="none" xmlns="http://www.w3.org/2000/svg">
<path d="M25.3693 24.1612C25.3693 24.4816 25.242 24.7889 25.0155 25.0154C24.7889 25.242 24.4816 25.3693 24.1612 25.3693H4.83224C4.51184 25.3693 4.20456 25.242 3.97801 25.0154C3.75145 24.7889 3.62418 24.4816 3.62418 24.1612V11.4645C3.62405 11.2804 3.666 11.0987 3.74681 10.9333C3.82763 10.7679 3.94518 10.6231 4.09049 10.5101L13.755 2.99354C13.967 2.82858 14.2281 2.73901 14.4967 2.73901C14.7654 2.73901 15.0264 2.82858 15.2385 2.99354L24.903 10.5101C25.0483 10.6231 25.1658 10.7679 25.2466 10.9333C25.3275 11.0987 25.3694 11.2804 25.3693 11.4645V24.1612V24.1612Z" fill="white"/>
</svg>
