<?xml version="1.0" encoding="UTF-8"?>
<svg version="1.1" xmlns="http://www.w3.org/2000/svg" width="25" height="25">
<path d="M0 0 C0.66 0.33 1.32 0.66 2 1 C2 1.99 2 2.98 2 4 C1.07767578 3.98259766 1.07767578 3.98259766 0.13671875 3.96484375 C-1.07564453 3.95130859 -1.07564453 3.95130859 -2.3125 3.9375 C-3.11300781 3.92589844 -3.91351563 3.91429687 -4.73828125 3.90234375 C-7.16861334 3.90342145 -7.16861334 3.90342145 -10 5 C-16.54098361 5.2295082 -16.54098361 5.2295082 -19 4 C-19 3.01 -19 2.02 -19 1 C-16.02148438 1.04882812 -16.02148438 1.04882812 -13.04296875 1.09765625 C-8.50585502 0.88077701 -4.71436668 -0.14966243 0 0 Z " fill="#FFFFFF" transform="translate(21,10)"/>
<path d="M0 0 C0 0.99 0 1.98 0 3 C-1.299375 2.979375 -2.59875 2.95875 -3.9375 2.9375 C-8.04529866 2.92452117 -11.99265563 3.28925646 -16.0546875 3.87890625 C-18 4 -18 4 -21 3 C-21 2.01 -21 1.02 -21 0 C-19.9275 0.020625 -18.855 0.04125 -17.75 0.0625 C-14.27180763 0.15063796 -14.27180763 0.15063796 -12.0625 -0.5 C-8.21440103 -1.43287248 -3.57017257 -1.78508628 0 0 Z " fill="#FFFFFF" transform="translate(23,5)"/>
<path d="M0 0 C0.80824219 0.10183594 1.61648437 0.20367188 2.44921875 0.30859375 C3.06410156 0.39238281 3.67898437 0.47617187 4.3125 0.5625 C4.3125 1.5525 4.3125 2.5425 4.3125 3.5625 C2.32682292 3.52994792 0.34114583 3.49739583 -1.64453125 3.46484375 C-3.89055461 3.47986783 -3.89055461 3.47986783 -6.6875 4.5625 C-13.73811082 5.03719459 -13.73811082 5.03719459 -16.6875 3.5625 C-16.6875 2.5725 -16.6875 1.5825 -16.6875 0.5625 C-15.76517578 0.57990234 -15.76517578 0.57990234 -14.82421875 0.59765625 C-13.61185547 0.61119141 -13.61185547 0.61119141 -12.375 0.625 C-11.57449219 0.63660156 -10.77398437 0.64820312 -9.94921875 0.66015625 C-6.31615759 0.50328832 -3.72404109 -0.48574449 0 0 Z " fill="#FFFFFF" transform="translate(18.6875,16.4375)"/>
</svg>
