<svg xmlns="http://www.w3.org/2000/svg" xmlns:xlink="http://www.w3.org/1999/xlink" viewBox="0 0 555.97 456.08" id="under-constructions">
  <defs>
    <linearGradient id="b" x1="120.15" x2="144.24" y1="271.06" y2="271.06" gradientUnits="userSpaceOnUse">
      <stop offset="0" stop-color="#ecc4d7"></stop>
      <stop offset=".42" stop-color="#efd4d1"></stop>
      <stop offset="1" stop-color="#f2eac9"></stop>
    </linearGradient>
    <linearGradient id="a" x1="135.11" x2="139.13" y1="186.01" y2="192.35" gradientUnits="userSpaceOnUse">
      <stop offset="0" stop-opacity="0"></stop>
      <stop offset=".97"></stop>
    </linearGradient>
    <linearGradient xlink:href="#a" id="c" x1="126.45" x2="127.26" y1="234.44" y2="284.33"></linearGradient>
    <linearGradient xlink:href="#a" id="d" x1="121.47" x2="121.93" y1="252.01" y2="280.17"></linearGradient>
    <linearGradient xlink:href="#a" id="e" x1="478.24" x2="336.36" y1="246.33" y2="251.06"></linearGradient>
    <linearGradient xlink:href="#a" id="f" x1="492.1" x2="486.67" y1="234.83" y2="331.18"></linearGradient>
    <linearGradient xlink:href="#a" id="g" x1="510.78" x2="425.83" y1="237.4" y2="333.38"></linearGradient>
    <linearGradient xlink:href="#a" id="h" x1="530.02" x2="482.46" y1="272.43" y2="274.18"></linearGradient>
    <linearGradient xlink:href="#a" id="i" x1="452.63" x2="518.49" y1="280.2" y2="280.2"></linearGradient>
    <linearGradient xlink:href="#a" id="j" x1="274.89" x2="227.48" y1="244.16" y2="245.91"></linearGradient>
    <linearGradient xlink:href="#a" id="k" x1="363.35" x2="323.35" y1="282.18" y2="204.08"></linearGradient>
    <linearGradient xlink:href="#a" id="l" x1="358.16" x2="356.91" y1="251.58" y2="267.16"></linearGradient>
    <linearGradient xlink:href="#a" id="m" x1="355.33" x2="355.33" y1="161.97" y2="214.36"></linearGradient>
    <linearGradient xlink:href="#a" id="n" x1="355.33" x2="355.33" y1="162.49" y2="222.17"></linearGradient>
    <linearGradient xlink:href="#a" id="o" x1="302.02" x2="296.65" y1="182.14" y2="214.13"></linearGradient>
    <linearGradient xlink:href="#a" id="p" x1="261.79" x2="290.27" y1="244.52" y2="244.2"></linearGradient>
    <linearGradient xlink:href="#a" id="q" x1="430.35" x2="431.06" y1="277.49" y2="340.63"></linearGradient>
    <linearGradient xlink:href="#a" id="r" x1="135.24" x2="34.35" y1="343.37" y2="358.4"></linearGradient>
    <linearGradient xlink:href="#a" id="s" x1="123.96" x2="135.74" y1="293.66" y2="347.27"></linearGradient>
    <linearGradient xlink:href="#a" id="t" x1="120.77" x2="124.09" y1="282.77" y2="317.01"></linearGradient>
    <linearGradient xlink:href="#a" id="u" x1="120.77" x2="124.09" y1="289.48" y2="323.72"></linearGradient>
    <linearGradient xlink:href="#a" id="v" x1="304.31" x2="299.07" y1="257.73" y2="322.99"></linearGradient>
    <linearGradient xlink:href="#a" id="w" x1="304.19" x2="299.28" y1="260.39" y2="321.49"></linearGradient>
    <linearGradient xlink:href="#a" id="x" x1="431.09" x2="428.89" y1="188.82" y2="266.95"></linearGradient>
    <linearGradient xlink:href="#a" id="y" x1="431.15" x2="428.69" y1="192.29" y2="279.71"></linearGradient>
    <linearGradient xlink:href="#b" id="z" x1="120.05" x2="133.14" y1="311.35" y2="311.35"></linearGradient>
    <linearGradient xlink:href="#a" id="A" x1="296.3" x2="294.08" y1="258.21" y2="285.91"></linearGradient>
    <linearGradient xlink:href="#a" id="B" x1="345.79" x2="298.23" y1="272.18" y2="273.93"></linearGradient>
    <linearGradient xlink:href="#a" id="C" x1="299.23" x2="290.94" y1="183.88" y2="242.71"></linearGradient>
    <linearGradient xlink:href="#a" id="D" x1="478.24" x2="336.36" y1="132.01" y2="136.74"></linearGradient>
    <linearGradient xlink:href="#a" id="E" x1="492.1" x2="486.67" y1="120.51" y2="216.86"></linearGradient>
    <linearGradient xlink:href="#a" id="F" x1="510.78" x2="425.83" y1="123.07" y2="219.06"></linearGradient>
    <linearGradient xlink:href="#a" id="G" x1="530.02" x2="482.46" y1="158.11" y2="159.86"></linearGradient>
    <linearGradient xlink:href="#a" id="H" x1="274.89" x2="227.48" y1="129.84" y2="131.59"></linearGradient>
    <linearGradient xlink:href="#a" id="I" x1="355.33" x2="355.33" y1="47.65" y2="100.04"></linearGradient>
    <linearGradient xlink:href="#a" id="J" x1="355.33" x2="355.33" y1="48.17" y2="107.84"></linearGradient>
    <linearGradient xlink:href="#a" id="K" x1="302.02" x2="296.65" y1="67.82" y2="99.81"></linearGradient>
    <linearGradient xlink:href="#a" id="L" x1="261.79" x2="290.27" y1="130.2" y2="129.88"></linearGradient>
    <linearGradient xlink:href="#a" id="M" x1="431.09" x2="428.89" y1="74.49" y2="152.63"></linearGradient>
    <linearGradient xlink:href="#a" id="N" x1="431.15" x2="428.69" y1="77.97" y2="165.39"></linearGradient>
    <linearGradient xlink:href="#a" id="O" x1="345.79" x2="298.23" y1="157.86" y2="159.61"></linearGradient>
    <linearGradient xlink:href="#a" id="P" x1="299.23" x2="290.94" y1="69.56" y2="128.39"></linearGradient>
    <linearGradient xlink:href="#b" id="Q" x1="173.3" x2="184.38" y1="280.27" y2="280.27"></linearGradient>
    <linearGradient id="R" x1="165.32" x2="169.59" y1="301.51" y2="387.82" gradientUnits="userSpaceOnUse">
      <stop offset="0" stop-opacity="0"></stop>
      <stop offset=".49" stop-opacity=".49"></stop>
      <stop offset=".97"></stop>
    </linearGradient>
  </defs>
  <path fill="#68e1fd" d="M120.78 158.14C82.55 165.6.21 183.84 28.17 274.81c3.9 12.71 29.08 56.14 31.87 69.14 3.11 14.52-3.35 29.83-.19 44.34 5.68 26.09 37.25 35.79 63.64 39.84 30.53 4.68 62 8.21 92.05 1.22 16.57-3.85 32.28-10.8 48.77-15 67.69-17.06 141.4 13.94 207.92-7.13 19.69-6.22 39.37-18.64 45.58-38.34 4-12.83 1.73-26.67 1.66-40.13-.2-34.19 4.23-79.64 15.08-112.06s60.83-160-44-180.9c-152.3-30.37-104.15 70.5-369.77 122.35Z" opacity=".25"></path>
  <path fill="#68e1fd" d="M118.88 388.45c-24.49 5.29-50.38 12.28-67 31-3.43 3.85-6.51 8.47-6.59 13.62-.21 12.26 14.94 18 27.1 19.65 37.54 5 75.6 3.43 113.44 1.88 23.94-1 47.94-2 71.63-5.51 46.54-7.01 92.7-23.9 139.54-18.8 15.42 1.68 30.51 5.74 45.94 7.29a143.24 143.24 0 0 0 72.58-11.8c8-3.6 16.45-8.88 18.55-17.42s-3.06-17.26-10.16-22.21-15.84-6.84-24.31-8.63c-20.4-4.29-38-11.91-58.89-13.23q-39.64-2.49-79.42-2.3a1177.37 1177.37 0 0 0-156.93 11.3q-43.01 6-85.48 15.16Z" opacity=".25"></path>
  <g fill="#3f3d56" opacity=".24">
    <path d="M97.88 445.82c14.67 1.34 29.4 1.91 44.12 2 12.74.06 25.89-.33 37.48-5.62 6.35-2.9 12.08-7.22 18.75-9.28 6.28-1.94 13-1.77 19.49-2.64s13.35-3.15 17.16-8.5L210 413.51a56.47 56.47 0 0 0-9.7-2.6 53.36 53.36 0 0 0-12.69.13 378.39 378.39 0 0 0-47.45 7.64c-8.76 2-13.31 7.2-20.91 10.54-6.12 2.69-9.79.57-16 .4-14.45-.39-24.76 14.43-5.37 16.2ZM234.55 380.75c-3.66.06-8.58 1.2-8.53 4.86 13.2 4.09 27.41-.43 41.23.06 18.58.66 35.5 10.31 51.56 19.7a17.51 17.51 0 0 0-15.48 8.56c36.19 3.82 72.44-5.41 108.82-6 38.08-.58 76.23 8.36 114 3.67-.66-3.07-4.36-4.24-7.46-4.71-15.89-2.4-32.08-1.31-48.11-2.34s-32.63-4.51-45.13-14.6a159.47 159.47 0 0 0 37.32-14c-7.5-3.53-16.25-2.45-24.48-1.46a616.6 616.6 0 0 1-164.29-2.2c-1.88 3.75 3.85 6.54 8 6.87l91.2 7.24c10.45.83 21.75 2 29.43 9.15-40.33 7.74-95.75-.26-133.74-15.94-6.24-2.58 3.9-9.85-2.83-9.14-7.81.82-22.12 10.11-31.51 10.28Z"></path>
  </g>
  <path fill="url(#b)" d="M140.58 254.84a8.11 8.11 0 0 1 1.7 5.81c-.1.91-.34 1.81-.39 2.72a3.34 3.34 0 0 0 .81 2.54c.54.52 1.39.85 1.52 1.58.19 1-1.05 1.59-1.78 2.31a6.41 6.41 0 0 0-1.3 2.76 20.69 20.69 0 0 1-1.84 4.24 6.59 6.59 0 0 1-3.24 3.18c-1 .36-2.22.27-3.17.82-2.24 1.29-1.71 5-3.79 6.59a4.35 4.35 0 0 1-2 .72 8.74 8.74 0 0 1-4.84-.65 3.72 3.72 0 0 1-1.7-1.32 4.46 4.46 0 0 1-.41-2.61c.17-3 .58-6.06.48-9.09-.05-1.62-.24-3.24-.22-4.86a16.44 16.44 0 0 1 6-12.55 14.06 14.06 0 0 1 13.59-2.16l-.89-1" transform="translate(0 -65.71)"></path>
  <path fill="#25233a" d="M124.56 197.38a2.74 2.74 0 0 0-2 3.18 3.25 3.25 0 0 0 3 2.42l-3.19 6.13c-.27.52-.72 1.14-1.29 1s-.71-.92-.82-1.53c-.34-1.93-1.86-3.41-2.72-5.17-1.26-2.57-1-5.59-.78-8.44.23-2.54.49-5.2 1.87-7.35a12.77 12.77 0 0 1 2.95-3 13.91 13.91 0 0 1 6.67-3.11 16.07 16.07 0 0 1 6.14.76 13.68 13.68 0 0 1 5.46 2.53 5.31 5.31 0 0 1 1.84 5.41c-3 .4-8.83 0-11.18 2.19-2 1.89-.64 6-3.23 7.29-.1-1.73-1.28-2.09-2.72-2.31Z"></path>
  <path fill="#68e1fd" d="M150.17 186.65c-.92-.55-5-2.26-5.93-2.81-.18-3.24-3.67-7.47-8.46-9.26-3.58-1.29-10.94-1.29-16.78 3.09-6.63 5-5.7 13.38-5.77 15.57a2.79 2.79 0 0 0 3.9 2.63 49.16 49.16 0 0 1 5.44-2.08l8-2c5.65-1.5 13.93-3.68 19.6-5.14Z"></path>
  <path fill="url(#a)" d="m148.95 186.12-23.65 6.12 7.8-4.15 2.14-1.13 3.62-1.26 4.07-1.4 1.31-.46 4.71 2.28z"></path>
  <path fill="#65657f" d="m125.3 193.03-7.07 13-1.62-3.96 2.23-3.91-2.58-1.86 2.74-1.24 1.78 1.42.73-2.35 3.79-1.1z"></path>
  <path fill="#68e1fd" d="M114.22 195.43s1.12.29 4-1a46.06 46.06 0 0 1 7.12-2.22l9.94-5.28s-12.64-6.36-20.1.85c-.04.02-2.94 4.01-.96 7.65Z"></path>
  <path fill="url(#c)" d="M114.07 250.66s5.41-9.29 14.08-9.26a17.24 17.24 0 0 1 11.13 4.19s-14.9-9.37-25.21 5.07Z" transform="translate(0 -65.71)"></path>
  <path fill="url(#d)" d="M113.87 260.35s.1 1.43 2.49.5 9.59-3 9.59-3l3.33-2s-14.09 5.41-15.41 4.5Z" transform="translate(0 -65.71)"></path>
  <path fill="#25233a" d="M117.71 418.63a260.13 260.13 0 0 0 28.79-100.68c.24-3.2.37-6.64-1.32-9.37-3.23-5.24-10.83-4.93-16.91-4-2.76.44-5.88 1.13-7.26 3.55-1 1.79-11.53 8.27-10.57 10.09 7 13.21 9.84 30.15 6.34 47.76-3.44 17.33-9.62 30.14-12.1 47.44 1.41.12 12.49 6.23 13.03 5.21Z"></path>
  <path fill="#68e1fd" d="M441.03 119.74h17.73v254.81h-17.73z"></path>
  <path fill="url(#e)" d="M448.56 119.74h10.2v254.81h-10.2z"></path>
  <path fill="#68e1fd" d="M458.76 173.98c0-.56 63.72 21.77 63.72 21.77l1.52 21.89-66.65-24.12-.17-19.55Z"></path>
  <path fill="url(#f)" d="M457.17 241.57c0-.56 65.31 22.95 65.31 22.95l1.52 17.91-66.65-24.12Z" transform="translate(0 -65.71)"></path>
  <path fill="#68e1fd" d="M453.77 178.34c0-.56 63.71 21.77 63.71 21.77L519 220.6l-66.65-24.12-.2-18.19Z"></path>
  <path fill="url(#g)" d="M452.18 245.45c0-.56 65.3 22.95 65.3 22.95l1.52 17.91-66.65-24.12Z" transform="translate(0 -65.71)"></path>
  <path fill="#68e1fd" d="M511.58 141.41h17.73v262.58h-17.73z"></path>
  <path fill="url(#h)" d="M513.61 141.41h17.73v262.58h-17.73z"></path>
  <path fill="#68e1fd" d="M518.66 141.41h2.5v262.58h-2.5z"></path>
  <path fill="#68e1fd" d="M518.8 279.94v3.29l-.31 14.61-65.86-22.08-.11-.04.85-17.22 65.43 21.44z"></path>
  <path fill="url(#i)" d="M518.49 282.48v16.92l-65.86-23.64.74-14.76 65.12 21.48z"></path>
  <path fill="#68e1fd" d="M256.48 114.32h17.73v260.23h-17.73z"></path>
  <path fill="url(#j)" d="M258.51 114.32h17.73v260.23h-17.73z"></path>
  <path fill="#68e1fd" d="M267.38 258.24h175.91v16.58H267.38z"></path>
  <path fill="url(#k)" d="M267.38 258.24h175.91v16.58H267.38z"></path>
  <path fill="url(#l)" d="M274.04 258.24h166.99v2.27H274.04z"></path>
  <path fill="#68e1fd" d="M267.38 173.09h175.91v16.58H267.38z"></path>
  <path fill="url(#m)" d="M267.38 173.09h175.91v16.58H267.38z"></path>
  <path fill="#68e1fd" d="M269.68 177.46h175.91v16.58H269.68z"></path>
  <path fill="url(#n)" d="M267.38 175.16h175.91v18.88H267.38z"></path>
  <path fill="#68e1fd" d="m327.36 197.25-53.15-19.79v4.32l53.15 19.78v-4.31z"></path>
  <path fill="url(#o)" d="m327.36 197.25-53.15-19.79v4.32l53.15 19.78v-4.31z"></path>
  <path fill="#68e1fd" d="M274.21 177.46h166.82v1.73H274.21zM274.21 171.93h166.82v1.73H274.21zM263.56 114.32h10.65v260.23h-10.65z"></path>
  <path fill="url(#p)" d="M263.56 114.32h10.65v260.23h-10.65z"></path>
  <path fill="#68e1fd" d="M342.58 284.35h175.91v16.58H342.58z"></path>
  <path fill="url(#q)" d="M342.58 286.64h175.91v14.28H342.58z"></path>
  <path fill="#68e1fd" d="M186.12 240.91c-1 6.78-3.79 13.5-8.92 18s-12.79 6.5-19.11 3.83c-6.61-2.79-10.38-9.66-13.64-16-.07 16.07 6.38 32 4.14 47.87a12.15 12.15 0 0 1-2.39 6.41c-1.72 2-4.38 2.83-6.91 3.53a151 151 0 0 1-27 4.77c-.88.07-1.75.15-2.63.2-1.06-5.24-1.5-12.07-1.58-20.39v-2.52c0-6.68.16-14.24.41-22.62v-2.43c0-.47 0-1.2.06-2v-4.86q.26-7.8.5-16.42c0-.74 0-1.47.05-2.22a29.19 29.19 0 0 1 .72-6.06 13.08 13.08 0 0 1 5.49-8.1 28.6 28.6 0 0 1 6.76-3.26c9.56-3.35 20.93-1.35 27.77 5.85a27 27 0 0 1 3.15 4.07c1.52 2.32 2.78 4.8 4.1 7.26a50.83 50.83 0 0 0 4.61 7.47c1.58 2 3.88 3.91 6.37 3.47 3.58-.64 4.56-5.24 4.6-8.85a132.3 132.3 0 0 0-1-17.91 53.83 53.83 0 0 1 13.71.5 108.19 108.19 0 0 1 1.13 11.06 51.81 51.81 0 0 1-.39 9.35Z"></path>
  <path fill="url(#r)" d="M128.82 335.67c-2.68 4.37-6.33 8.06-10 11.6-1.73 1.65-.72 21.55-2.51 23.15-.65.58-2.24 2.54-4 4.6-.88.07-1.75.15-2.63.2-1.06-5.24-1.5-12.07-1.58-20.39v-2.52c0-6.68.16-14.24.41-22.62v-2.43c0-.47 0-1.2.06-2v-4.86c1.25-1.09 2.16 3.48 2.39 4.08a1.74 1.74 0 0 0 .33.54 1 1 0 0 0 .72.21 4.74 4.74 0 0 0 3-1.78q2.94-2.94 5.59-6.14l11.82 3.76c.77 5.08-.91 10.23-3.6 14.6Z" transform="translate(0 -65.71)"></path>
  <path fill="#68e1fd" d="M131 255.04c-3.47 14.24-13.8 28-22.91 31.56-3.73 1.45-7.25 1.2-10-1.43-5-4.47-6-21-4.47-39.52a26.9 26.9 0 0 1 1.38-6.71 25.06 25.06 0 0 1 4.75-8.06 32.6 32.6 0 0 1 15.86-9.42l-.09.4-1.62 7.88-1.71 8.28-3.43 16.65-2 9.59c0 1.09.67.8 1.69-.28 2.85-3 8.53-12.17 10.93-14.08a1.54 1.54 0 0 0 .2-.18Z"></path>
  <path fill="url(#s)" d="M157.09 301.53c-.33.07-.68.11-1 .16-7.34.87-14.75.58-22.13.74s-14.52.76-21.78 1.3l-2.93.23c-4.74.32-9.5.6-14.26.69a25.06 25.06 0 0 1 4.75-8.06 14.17 14.17 0 0 1 2.13-.32c2.72-.22 5.43-.42 8.15-.59 1.29-.09 2.58-.16 3.87-.23 8.64-.5 17.27-.81 25.9-1.12 4.4-.15 8.8-.3 13.19-.06 1.53 2.32 2.79 4.8 4.11 7.26Z" transform="translate(0 -65.71)"></path>
  <path fill="#3f3d56" d="M137.23 358.57c10.82 14.12 21.05 30 22 47.72.18 3.19.54 7.15 3.52 8.31a7.71 7.71 0 0 0 4.36-.07l11-2.27-6.85-30.67c-1.72-7.74-3.47-15.55-6.73-22.78-2.29-5.07-5.29-9.79-7.76-14.79-6.23-12.62-8.89-26.65-11.49-40.49-12.87.84-42.1-4.89-34.82 14.73 5.78 15.66 18.54 26.3 26.77 40.31Z"></path>
  <path fill="#3f3d56" d="M166.56 418.78a5.48 5.48 0 0 0 1 1.95 3.93 3.93 0 0 0 3.64 1 11.64 11.64 0 0 0 3.6-1.57 3.81 3.81 0 0 0 1.53-1.3 3.93 3.93 0 0 0-.1-3l-1.81-5.73a1.21 1.21 0 0 0-.56-.84 1.28 1.28 0 0 0-1.1.31c-2 1.33-5 1.5-6.84 2.82s-.07 4.37.64 6.36ZM105.45 421.49a18.86 18.86 0 0 0 5.87 2.56 1.64 1.64 0 0 0 1 0c.48-.17.7-.71.86-1.19l2.59-7.42c-.31.9-5.55-3.64-6.79-3.18-2.31.91-3.08 7.14-3.53 9.23Z"></path>
  <path fill="#3f3d56" d="M173.93 416.19a13.09 13.09 0 0 1 3.48-.73c3.33-.08 6.51 2.37 9.75 1.61a23.26 23.26 0 0 1 2.56-.73 4.3 4.3 0 0 1 4.39 3.51 6.7 6.7 0 0 1-1.81 5.66 16 16 0 0 1-5.07 3.45 40.9 40.9 0 0 1-12.37 3.8 6.49 6.49 0 0 1-3.25-.18 5.89 5.89 0 0 1-2.19-1.72c-2.08-2.38-4.44-6.56-4.07-9.88.39-3.51 5.79-3.93 8.58-4.79ZM114.48 422.5a3.87 3.87 0 0 1 1.3.65 4.2 4.2 0 0 1 .92 1.7 17.1 17.1 0 0 0 5.62 7.54 10.19 10.19 0 0 1 2.74 2.48 2.52 2.52 0 0 1-.36 3.34 3.32 3.32 0 0 1-1.89.4 46.93 46.93 0 0 1-6.47-.63c-5.81-.84-12-1.85-16.36-5.78a6.12 6.12 0 0 1-2.26-3.76c-.18-1.9 1-3.4 2-4.88.72-1.08 1.65-3.49 2.78-4.2 2.55-1.57 9.37 2.24 11.98 3.14Z"></path>
  <path fill="#68e1fd" d="M242.22 209.98s-.07 1.09-.16 2.76c-.3 5.22-.93 16.06-1 16.25S1.25 239.61 1.25 239.61l-1-14L0 222.9l14-.13Z"></path>
  <path fill="url(#t)" d="M242.06 278.45c-.3 5.22-.93 16.06-1 16.25S1.25 305.32 1.25 305.32l-1-14 13.75-.11Z" transform="translate(0 -65.71)"></path>
  <path fill="#68e1fd" d="M242.22 216.69s-.07 1.09-.16 2.76c-.3 5.23-.93 16.07-1 16.25S1.25 246.29 1.25 246.29l-1-14-.25-2.68 14-.13Z"></path>
  <path fill="url(#u)" d="M242.06 285.16c-.3 5.23-.93 16.07-1 16.25S1.25 312 1.25 312l-1-14 13.75-.07Z" transform="translate(0 -65.71)"></path>
  <path fill="#68e1fd" d="m263.56 278.77 77.81 23.83-.05-19.85-77.76-23.88v19.9z"></path>
  <path fill="url(#v)" d="M341.37 302.6h-.01l-77.8-23.82v-19.91l77.76 23.88.05 19.85z"></path>
  <path fill="url(#w)" d="m341.36 302.6-77.8-23.82v-17.52l77.76 23.88.04 17.46z"></path>
  <path fill="#68e1fd" d="M342.58 199.2h175.91v16.06H342.58z"></path>
  <path fill="url(#x)" d="M342.58 201.56h175.91v13.7H342.58z"></path>
  <path fill="#68e1fd" d="M342.58 203.9h175.91v18.36H342.58z"></path>
  <path fill="url(#y)" d="M342.58 206.26h175.91v15.92H342.58z"></path>
  <path fill="url(#z)" d="M128.39 319c2.53-3.06 3.52-6.13 4.69-9.93.35-1.14-.76-1.19-2.07 1.93.33-2.21 1-5.78 1-6.63-1.17-1.08-1.43.89-1.76 1.69a34.5 34.5 0 0 0-1.39 3.25c.2-1.9.18-2.79.38-4.69 0-.35 0-.83-.35-.91-1.8.36-1.09 4.55-2.69 6.15.26-1.75.53-5.89 0-5.62-1 0-1.48 1.28-1.66 2.29l-1 5.67c-.56-.17-.67-.89-.81-1.46s-.75-1.2-1.22-.85a.84.84 0 0 0-.28.52 7.42 7.42 0 0 0 .16 2.14 4.77 4.77 0 0 1-1.32 3.76 34.3 34.3 0 0 0 8.32 2.69Z" transform="translate(0 -65.71)"></path>
  <path fill="url(#A)" d="M263.56 258.87h17.73l46.07 12.55v7.06l-63.8-19.61z"></path>
  <path fill="#68e1fd" d="M263.56 114.32h2.5v260.23h-2.5zM327.36 141.17h17.73v262.58h-17.73z"></path>
  <path fill="url(#B)" d="M329.39 141.17h17.73v262.58h-17.73z"></path>
  <path fill="#68e1fd" d="M334.44 141.17h2.5v262.58h-2.5zM266.06 178.74l61.3 22.82v20.62l-61.3-26.62v-16.82z"></path>
  <path fill="url(#C)" d="m266.06 181.38 61.3 22.83v17.97l-61.3-26.62v-14.18z"></path>
  <path fill="#68e1fd" d="m274.21 177.46 53.15 19.79v2.36l-53.15-19.73v-2.42zM441.03 5.42h17.73v155.82h-17.73z"></path>
  <path fill="url(#D)" d="M448.56 5.42h10.2v254.81h-10.2z"></path>
  <path fill="#68e1fd" d="M458.76 59.65c0-.55 63.72 21.78 63.72 21.78l1.52 21.86-66.65-24.12-.17-19.56Z"></path>
  <path fill="url(#E)" d="M457.17 127.24c0-.55 65.31 23 65.31 23l1.52 17.87L457.32 144Z" transform="translate(0 -65.71)"></path>
  <path fill="#68e1fd" d="M453.77 64.02c0-.56 63.71 21.77 63.71 21.77l1.52 20.5-66.65-24.12-.17-18.15Z"></path>
  <path fill="url(#F)" d="M452.18 131.13c0-.56 65.3 23 65.3 23L519 172l-66.65-24.12Z" transform="translate(0 -65.71)"></path>
  <path fill="#68e1fd" d="M511.58 27.09h17.73v262.58h-17.73z"></path>
  <path fill="url(#G)" d="M513.61 27.09h17.73v262.58h-17.73z"></path>
  <path fill="#68e1fd" d="M518.66 27.09h2.5v262.58h-2.5zM256.48 0h17.73v260.23h-17.73z"></path>
  <path fill="url(#H)" d="M258.51 0h17.73v260.23h-17.73z"></path>
  <path fill="#68e1fd" d="M267.38 58.77h175.91v16.58H267.38z"></path>
  <path fill="url(#I)" d="M267.38 58.77h175.91v16.58H267.38z"></path>
  <path fill="#68e1fd" d="M269.68 63.14h175.91v16.58H269.68z"></path>
  <path fill="url(#J)" d="M267.38 60.84h175.91v18.88H267.38z"></path>
  <path fill="#68e1fd" d="m327.36 82.93-53.15-19.79v4.31l53.15 19.79v-4.31z"></path>
  <path fill="url(#K)" d="m327.36 82.93-53.15-19.79v4.31l53.15 19.79v-4.31z"></path>
  <path fill="#68e1fd" d="M274.21 63.14h166.82v1.73H274.21zM274.21 57.61h166.82v1.73H274.21zM263.56 0h10.65v260.23h-10.65z"></path>
  <path fill="url(#L)" d="M263.56 0h10.65v260.23h-10.65z"></path>
  <path fill="#68e1fd" d="M342.58 84.88h175.91v16.06H342.58z"></path>
  <path fill="url(#M)" d="M342.58 87.24h175.91v13.7H342.58z"></path>
  <path fill="#68e1fd" d="M342.58 89.58h175.91v18.36H342.58z"></path>
  <path fill="url(#N)" d="M342.58 91.94h175.91v15.92H342.58z"></path>
  <path fill="#68e1fd" d="M263.56 0h2.5v260.23h-2.5zM327.36 26.85h17.73v262.58h-17.73z"></path>
  <path fill="url(#O)" d="M329.39 26.85h17.73v262.58h-17.73z"></path>
  <path fill="#68e1fd" d="M334.44 26.85h2.5v262.58h-2.5zM266.06 64.42l61.3 22.82v20.62l-61.3-26.62V64.42z"></path>
  <path fill="url(#P)" d="m266.06 67.06 61.3 22.83v17.97l-61.3-26.62V67.06z"></path>
  <path fill="#68e1fd" d="m274.21 63.14 53.15 19.79v2.35l-53.15-19.73v-2.41z"></path>
  <path fill="url(#Q)" d="M174.93 277.45a6.84 6.84 0 0 0-1.19 2.17 4.53 4.53 0 0 0-.43 1.94 1.65 1.65 0 0 0 1.1 1.52.61.61 0 0 0 .51-.05.77.77 0 0 0 .24-.32 22.58 22.58 0 0 0 1.38-3.19 3.49 3.49 0 0 0-.43 3.67c.2.41.59.81 1 .71s.57-.54.68-.93c.26-.92.47-1.85.64-2.78a11.26 11.26 0 0 0-.27 1.82 2.06 2.06 0 0 0 .12.93.76.76 0 0 0 .75.47 1.1 1.1 0 0 0 .64-.49 13.65 13.65 0 0 0 1.75-3 6 6 0 0 0 .12 3 .75.75 0 0 0 .25.38c.41.31 1-.15 1.24-.59a9.39 9.39 0 0 0 1.16-2.7 3.31 3.31 0 0 0 .1-1.56 1.5 1.5 0 0 0-1-1.15 1 1 0 0 0-1.21.7c.09-.67-.66-1.21-1.33-1.14a2.58 2.58 0 0 0-1.63 1.09 1.31 1.31 0 0 0-1.21-1.2c-1.17-.11-2.02-.37-2.98.7Z" transform="translate(0 -65.71)"></path>
  <path fill="url(#R)" d="M186.12 306.62c-1 6.78-3.79 13.5-8.92 18s-12.79 6.5-19.11 3.83c-6.61-2.79-10.38-9.66-13.64-16 0 0 .39-5.67 4.5-2.29s10.2 23.87 22.79 11.9 12.64-24.74 12.64-24.74l2.15-.09a51.81 51.81 0 0 1-.41 9.39Z" transform="translate(0 -65.71)"></path>
</svg>