<svg width="174" height="31" viewBox="0 0 174 31" fill="none" xmlns="http://www.w3.org/2000/svg">
<path d="M18.0674 1.53308C20.6133 1.53331 22.6768 3.59744 22.6768 6.14343C22.6767 7.96009 21.6256 9.52997 20.0986 10.2811C20.316 11.0662 20.4346 11.8927 20.4346 12.7469C20.4346 13.6008 20.3159 14.427 20.0986 15.2118C21.6258 15.9628 22.6766 17.5337 22.6768 19.3505C22.6768 21.8965 20.6133 23.9606 18.0674 23.9608C16.3115 23.9608 14.7844 22.9795 14.0059 21.535C13.125 21.8146 12.1873 21.9677 11.2139 21.9677C10.3183 21.9676 9.45347 21.8367 8.63477 21.5985C7.84606 23.0077 6.34004 23.9608 4.61035 23.9608C2.06421 23.9608 0 21.8966 0 19.3505C0.000138621 17.6212 0.952632 16.1148 2.36133 15.326C2.12326 14.5075 1.99316 13.6424 1.99316 12.7469C1.99317 11.8512 2.12307 10.9857 2.36133 10.1669C0.952861 9.37796 5.74043e-05 7.87258 0 6.14343C0 3.59729 2.06421 1.53308 4.61035 1.53308C6.3395 1.53314 7.84488 2.48594 8.63379 3.89441C9.45267 3.65614 10.3181 3.52626 11.2139 3.52625C12.1872 3.52625 13.1251 3.67836 14.0059 3.95789C14.7845 2.51397 16.3119 1.53308 18.0674 1.53308ZM11.2139 4.91003C10.4893 4.91004 9.78807 5.0092 9.12207 5.19324C9.18631 5.49984 9.2207 5.81774 9.2207 6.14343C9.22062 8.68945 7.15637 10.7537 4.61035 10.7538C4.28466 10.7538 3.96676 10.7194 3.66016 10.6552C3.47613 11.3211 3.37696 12.0224 3.37695 12.7469C3.37695 13.4711 3.47631 14.1721 3.66016 14.8378C3.96668 14.7736 4.28475 14.7411 4.61035 14.7411C7.15628 14.7412 9.2205 16.8046 9.2207 19.3505C9.2207 19.6757 9.18615 19.9934 9.12207 20.2997C9.78816 20.4838 10.4892 20.5848 11.2139 20.5848C12.0246 20.5848 12.8065 20.4608 13.542 20.2323C13.4867 19.9469 13.457 19.652 13.457 19.3505C13.4572 16.8045 15.5214 14.7411 18.0674 14.7411C18.3091 14.7411 18.5466 14.7589 18.7783 14.7948C18.9547 14.1418 19.0518 13.4557 19.0518 12.7469C19.0517 12.0379 18.9548 11.3514 18.7783 10.6981C18.5466 10.734 18.3092 10.7538 18.0674 10.7538C15.5213 10.7538 13.4571 8.6895 13.457 6.14343C13.457 5.84151 13.4866 5.54635 13.542 5.26062C12.8066 5.03218 12.0244 4.91003 11.2139 4.91003Z" fill="#3FFDE0"/>
<path d="M37.0107 3.07013C39.0761 3.07013 40.881 3.48879 42.4254 4.3261C43.9883 5.14481 45.1885 6.29843 46.0258 7.78699C46.8631 9.27554 47.2818 10.9781 47.2818 12.8946C47.2818 14.7925 46.8538 16.4857 45.9979 17.9743C45.1606 19.4628 43.9604 20.6351 42.3974 21.491C40.8531 22.3283 39.0575 22.7469 37.0107 22.7469H29.2237V3.07013H37.0107ZM36.5921 17.9185C38.1923 17.9185 39.4482 17.4812 40.36 16.6067C41.2717 15.7321 41.7276 14.4948 41.7276 12.8946C41.7276 11.2758 41.2717 10.0291 40.36 9.1546C39.4482 8.26146 38.1923 7.8149 36.5921 7.8149H34.6942V17.9185H36.5921ZM52.5108 5.63789C51.5433 5.63789 50.7618 5.37739 50.1663 4.8564C49.5895 4.3168 49.3011 3.64695 49.3011 2.84685C49.3011 2.02815 49.5895 1.349 50.1663 0.809396C50.7618 0.269794 51.5433 -6.35588e-06 52.5108 -6.35588e-06C53.4598 -6.35588e-06 54.2226 0.269794 54.7995 0.809396C55.3949 1.349 55.6926 2.02815 55.6926 2.84685C55.6926 3.64695 55.3949 4.3168 54.7995 4.8564C54.2226 5.37739 53.4598 5.63789 52.5108 5.63789ZM55.2181 7.08923V22.7469H49.7477V7.08923H55.2181ZM64.1108 6.89386C65.1714 6.89386 66.0925 7.10784 66.874 7.5358C67.6741 7.96375 68.2881 8.54057 68.7161 9.26624V7.08923H74.1865V22.5795C74.1865 24.0494 73.9074 25.3705 73.3492 26.5428C72.791 27.7336 71.9164 28.6826 70.7256 29.3896C69.5534 30.0967 68.0648 30.4502 66.2599 30.4502C63.841 30.4502 61.9059 29.8827 60.4546 28.7477C59.0032 27.6127 58.1752 26.0683 57.9706 24.1146H63.3573C63.4689 24.6169 63.748 25.0077 64.1946 25.2868C64.6411 25.5659 65.218 25.7054 65.925 25.7054C67.7857 25.7054 68.7161 24.6635 68.7161 22.5795V20.5699C68.2881 21.2956 67.6741 21.8724 66.874 22.3004C66.0925 22.7283 65.1714 22.9423 64.1108 22.9423C62.8642 22.9423 61.7292 22.6167 60.7058 21.9655C59.701 21.3142 58.9009 20.3839 58.3055 19.1744C57.7287 17.9464 57.4403 16.5229 57.4403 14.9041C57.4403 13.2853 57.7287 11.8712 58.3055 10.6618C58.9009 9.45231 59.701 8.52196 60.7058 7.87072C61.7292 7.21948 62.8642 6.89386 64.1108 6.89386ZM68.7161 14.9041C68.7161 13.8994 68.4369 13.1086 67.8787 12.5318C67.3391 11.9549 66.6693 11.6665 65.8692 11.6665C65.0505 11.6665 64.3713 11.9549 63.8317 12.5318C63.2921 13.09 63.0223 13.8808 63.0223 14.9041C63.0223 15.9089 63.2921 16.709 63.8317 17.3044C64.3713 17.8812 65.0505 18.1696 65.8692 18.1696C66.6693 18.1696 67.3391 17.8812 67.8787 17.3044C68.4369 16.7276 68.7161 15.9275 68.7161 14.9041ZM80.0669 5.63789C79.0993 5.63789 78.3178 5.37739 77.7224 4.8564C77.1456 4.3168 76.8572 3.64695 76.8572 2.84685C76.8572 2.02815 77.1456 1.349 77.7224 0.809396C78.3178 0.269794 79.0993 -6.35588e-06 80.0669 -6.35588e-06C81.0158 -6.35588e-06 81.7787 0.269794 82.3555 0.809396C82.9509 1.349 83.2486 2.02815 83.2486 2.84685C83.2486 3.64695 82.9509 4.3168 82.3555 4.8564C81.7787 5.37739 81.0158 5.63789 80.0669 5.63789ZM82.7742 7.08923V22.7469H77.3037V7.08923H82.7742Z" fill="#3FFDE0"/>
<path d="M92.6437 22.9423C91.3599 22.9423 90.2062 22.719 89.1829 22.2725C88.1781 21.8073 87.3873 21.1747 86.8105 20.3746C86.2337 19.5559 85.936 18.6162 85.9173 17.5556H88.6247C88.7177 18.4674 89.0898 19.2395 89.7411 19.8722C90.4109 20.4862 91.3785 20.7932 92.6437 20.7932C93.8532 20.7932 94.8021 20.4955 95.4906 19.9001C96.1977 19.2861 96.5512 18.5046 96.5512 17.5556C96.5512 16.8113 96.3465 16.2066 95.9372 15.7414C95.5278 15.2763 95.0161 14.9227 94.4021 14.6809C93.7881 14.439 92.9601 14.1785 91.9181 13.8994C90.6342 13.5644 89.6015 13.2295 88.82 12.8946C88.0571 12.5597 87.3966 12.0387 86.8384 11.3316C86.2988 10.6059 86.029 9.63838 86.029 8.42893C86.029 7.36833 86.2988 6.42868 86.8384 5.60998C87.378 4.79127 88.1316 4.15864 89.0991 3.71207C90.0853 3.26551 91.211 3.04222 92.4763 3.04222C94.2998 3.04222 95.7883 3.49809 96.9419 4.40983C98.1142 5.32157 98.7747 6.53102 98.9236 8.03818H96.1325C96.0395 7.29391 95.6488 6.64266 94.9603 6.08446C94.2719 5.50764 93.3601 5.21923 92.2251 5.21923C91.1645 5.21923 90.2993 5.49834 89.6294 6.05654C88.9596 6.59615 88.6247 7.35903 88.6247 8.3452C88.6247 9.05226 88.82 9.62907 89.2108 10.0756C89.6201 10.5222 90.1132 10.8664 90.69 11.1083C91.2854 11.3316 92.1134 11.5921 93.174 11.8898C94.4579 12.2433 95.4906 12.5969 96.2721 12.9504C97.0536 13.2853 97.7234 13.8156 98.2816 14.5413C98.8398 15.2484 99.119 16.2159 99.119 17.444C99.119 18.3929 98.8678 19.2861 98.3654 20.1234C97.863 20.9607 97.1187 21.6398 96.1325 22.1608C95.1464 22.6818 93.9834 22.9423 92.6437 22.9423ZM105.396 10.271C105.899 9.39649 106.643 8.67082 107.629 8.094C108.634 7.49858 109.797 7.20087 111.118 7.20087C112.476 7.20087 113.704 7.52649 114.802 8.17773C115.919 8.82898 116.793 9.75002 117.426 10.9409C118.058 12.1131 118.375 13.4807 118.375 15.0437C118.375 16.5881 118.058 17.965 117.426 19.1744C116.793 20.3839 115.919 21.3235 114.802 21.9934C113.704 22.6632 112.476 22.9981 111.118 22.9981C109.816 22.9981 108.662 22.7097 107.657 22.1329C106.671 21.5375 105.917 20.8025 105.396 19.928V30.0036H102.857V7.45206H105.396V10.271ZM115.779 15.0437C115.779 13.8901 115.546 12.8853 115.081 12.0294C114.616 11.1734 113.983 10.5222 113.183 10.0756C112.402 9.62907 111.537 9.40579 110.588 9.40579C109.657 9.40579 108.792 9.63838 107.992 10.1035C107.211 10.5501 106.578 11.2107 106.094 12.0852C105.629 12.9411 105.396 13.9366 105.396 15.0716C105.396 16.2252 105.629 17.2393 106.094 18.1138C106.578 18.9697 107.211 19.6303 107.992 20.0955C108.792 20.542 109.657 20.7653 110.588 20.7653C111.537 20.7653 112.402 20.542 113.183 20.0955C113.983 19.6303 114.616 18.9697 115.081 18.1138C115.546 17.2393 115.779 16.2159 115.779 15.0437ZM120.769 15.0437C120.769 13.4807 121.085 12.1131 121.718 10.9409C122.35 9.75002 123.216 8.82898 124.314 8.17773C125.43 7.52649 126.667 7.20087 128.026 7.20087C129.365 7.20087 130.528 7.48928 131.514 8.06609C132.501 8.64291 133.236 9.36858 133.719 10.2431V7.45206H136.287V22.7469H133.719V19.9001C133.217 20.7932 132.463 21.5375 131.459 22.1329C130.472 22.7097 129.319 22.9981 127.998 22.9981C126.639 22.9981 125.411 22.6632 124.314 21.9934C123.216 21.3235 122.35 20.3839 121.718 19.1744C121.085 17.965 120.769 16.5881 120.769 15.0437ZM133.719 15.0716C133.719 13.918 133.487 12.9132 133.022 12.0573C132.556 11.2014 131.924 10.5501 131.124 10.1035C130.342 9.63838 129.477 9.40579 128.528 9.40579C127.579 9.40579 126.714 9.62907 125.932 10.0756C125.151 10.5222 124.527 11.1734 124.062 12.0294C123.597 12.8853 123.365 13.8901 123.365 15.0437C123.365 16.2159 123.597 17.2393 124.062 18.1138C124.527 18.9697 125.151 19.6303 125.932 20.0955C126.714 20.542 127.579 20.7653 128.528 20.7653C129.477 20.7653 130.342 20.542 131.124 20.0955C131.924 19.6303 132.556 18.9697 133.022 18.1138C133.487 17.2393 133.719 16.2252 133.719 15.0716ZM139.63 15.0716C139.63 13.49 139.947 12.1131 140.579 10.9409C141.212 9.75002 142.086 8.82898 143.203 8.17773C144.338 7.52649 145.631 7.20087 147.082 7.20087C148.962 7.20087 150.506 7.65674 151.715 8.56848C152.943 9.48022 153.753 10.7455 154.144 12.3643H151.408C151.148 11.4339 150.636 10.699 149.873 10.1594C149.129 9.61977 148.199 9.34997 147.082 9.34997C145.631 9.34997 144.459 9.85236 143.566 10.8571C142.672 11.8433 142.226 13.2481 142.226 15.0716C142.226 16.9137 142.672 18.3371 143.566 19.3419C144.459 20.3467 145.631 20.849 147.082 20.849C148.199 20.849 149.129 20.5885 149.873 20.0676C150.618 19.5466 151.129 18.8023 151.408 17.8347H154.144C153.734 19.3977 152.916 20.6537 151.687 21.6026C150.459 22.533 148.924 22.9981 147.082 22.9981C145.631 22.9981 144.338 22.6725 143.203 22.0213C142.086 21.37 141.212 20.449 140.579 19.2582C139.947 18.0673 139.63 16.6718 139.63 15.0716ZM171.488 14.5134C171.488 14.9972 171.46 15.5089 171.404 16.0485H159.179C159.272 17.5556 159.784 18.7372 160.714 19.5931C161.663 20.4304 162.808 20.849 164.147 20.849C165.245 20.849 166.157 20.5978 166.882 20.0955C167.627 19.5745 168.148 18.886 168.445 18.0301H171.181C170.771 19.5 169.953 20.7002 168.725 21.6305C167.497 22.5423 165.971 22.9981 164.147 22.9981C162.696 22.9981 161.393 22.6725 160.24 22.0213C159.105 21.37 158.212 20.449 157.56 19.2582C156.909 18.0487 156.584 16.6532 156.584 15.0716C156.584 13.49 156.9 12.1038 157.533 10.9129C158.165 9.72211 159.049 8.81037 160.184 8.17773C161.338 7.52649 162.659 7.20087 164.147 7.20087C165.599 7.20087 166.882 7.51719 167.999 8.14982C169.115 8.78246 169.971 9.65698 170.567 10.7734C171.181 11.8712 171.488 13.1179 171.488 14.5134ZM168.864 13.9831C168.864 13.0155 168.65 12.1875 168.222 11.4991C167.794 10.792 167.208 10.2617 166.464 9.90818C165.738 9.53604 164.929 9.34997 164.036 9.34997C162.752 9.34997 161.654 9.75932 160.742 10.578C159.849 11.3967 159.337 12.5318 159.207 13.9831H168.864Z" fill="white"/>
</svg>
